<svg xmlns="http://www.w3.org/2000/svg" xmlns:xlink="http://www.w3.org/1999/xlink" version="1.1" width="256" height="256" viewBox="0 0 256 256" xml:space="preserve">

<defs>
</defs>
<g style="stroke: none; stroke-width: 0; stroke-dasharray: none; stroke-linecap: butt; stroke-linejoin: miter; stroke-miterlimit: 10; fill: none; fill-rule: nonzero; opacity: 1;" transform="translate(1.4065934065934016 1.4065934065934016) scale(2.81 2.81)" >
	<polygon points="71.53,89 18.47,89 18.47,48.37 45,29.59 71.53,48.37 " style="stroke: none; stroke-width: 1; stroke-dasharray: none; stroke-linecap: butt; stroke-linejoin: miter; stroke-miterlimit: 10; fill: rgb(238,234,241); fill-rule: nonzero; opacity: 1;" transform="  matrix(1 0 0 1 0 0) "/>
	<path d="M 71.527 90 H 18.472 c -0.552 0 -1 -0.447 -1 -1 V 48.37 c 0 -0.324 0.157 -0.629 0.422 -0.816 l 26.528 -18.783 c 0.346 -0.245 0.81 -0.245 1.155 0 l 26.528 18.783 c 0.265 0.188 0.422 0.492 0.422 0.816 V 89 C 72.527 89.552 72.08 90 71.527 90 z M 19.472 88 h 51.055 V 48.888 L 45 30.812 L 19.472 48.888 V 88 z" style="stroke: none; stroke-width: 1; stroke-dasharray: none; stroke-linecap: butt; stroke-linejoin: miter; stroke-miterlimit: 10; fill: rgb(0,0,0); fill-rule: nonzero; opacity: 1;" transform=" matrix(1 0 0 1 0 0) " stroke-linecap="round" />
	<path d="M 45.808 81.492 c -0.446 0.446 -1.17 0.446 -1.616 0 L 31.997 69.297 c -1.877 -1.876 -2.771 -4.474 -2.422 -7.169 c 0.188 -1.453 0.762 -2.843 1.654 -4.005 c 1.708 -2.226 4.282 -3.444 7.033 -3.369 c 2.237 0.061 4.348 1.054 5.93 2.637 v 0 c 0.446 0.446 1.17 0.446 1.616 0 l 0.019 -0.019 c 1.561 -1.561 3.639 -2.539 5.845 -2.616 c 2.39 -0.083 4.65 0.809 6.331 2.491 l 0 0 c 1.61 1.609 2.496 3.749 2.496 6.026 s -0.886 4.416 -2.496 6.026 L 45.808 81.492 z" style="stroke: none; stroke-width: 1; stroke-dasharray: none; stroke-linecap: butt; stroke-linejoin: miter; stroke-miterlimit: 10; fill: rgb(254,85,120); fill-rule: nonzero; opacity: 1;" transform=" matrix(1 0 0 1 0 0) " stroke-linecap="round" />
	<path d="M 45 82.828 L 45 82.828 c -0.573 -0.001 -1.111 -0.224 -1.516 -0.63 L 31.29 70.005 c -2.106 -2.106 -3.092 -5.023 -2.707 -8.004 c 0.211 -1.631 0.851 -3.182 1.852 -4.486 c 1.898 -2.474 4.77 -3.835 7.853 -3.761 c 2.439 0.066 4.787 1.106 6.61 2.93 c 0.055 0.055 0.147 0.054 0.203 0 c 1.811 -1.811 4.126 -2.844 6.536 -2.927 c 2.66 -0.09 5.184 0.895 7.072 2.782 c 1.799 1.799 2.789 4.189 2.789 6.733 c 0 2.543 -0.99 4.934 -2.789 6.732 L 46.516 82.199 C 46.11 82.604 45.572 82.828 45 82.828 z M 38.024 55.751 c -2.364 0 -4.542 1.078 -6.002 2.98 c -0.787 1.025 -1.29 2.245 -1.456 3.525 c -0.306 2.361 0.474 4.67 2.137 6.334 l 12.195 12.194 c 0.071 0.07 0.133 0.07 0.202 0 h 0 l 12.195 -12.194 c 1.421 -1.421 2.203 -3.31 2.203 -5.318 c 0 -2.01 -0.782 -3.898 -2.203 -5.319 c -1.492 -1.491 -3.487 -2.259 -5.589 -2.198 c -1.903 0.066 -3.74 0.892 -5.174 2.324 c -0.853 0.855 -2.213 0.854 -3.049 0.019 c -1.46 -1.459 -3.325 -2.292 -5.25 -2.344 C 38.164 55.752 38.094 55.751 38.024 55.751 z" style="stroke: none; stroke-width: 1; stroke-dasharray: none; stroke-linecap: butt; stroke-linejoin: miter; stroke-miterlimit: 10; fill: rgb(0,0,0); fill-rule: nonzero; opacity: 1;" transform=" matrix(1 0 0 1 0 0) " stroke-linecap="round" />
	<rect x="18.47" y="30.08" rx="0" ry="0" width="8.86" height="15.02" style="stroke: none; stroke-width: 1; stroke-dasharray: none; stroke-linecap: butt; stroke-linejoin: miter; stroke-miterlimit: 10; fill: rgb(238,234,241); fill-rule: nonzero; opacity: 1;" transform=" matrix(1 0 0 1 0 0) "/>
	<path d="M 27.33 46.097 h -8.858 c -0.552 0 -1 -0.447 -1 -1 V 30.081 c 0 -0.552 0.448 -1 1 -1 h 8.858 c 0.552 0 1 0.448 1 1 v 15.017 C 28.33 45.649 27.882 46.097 27.33 46.097 z M 19.472 44.097 h 6.858 V 31.081 h -6.858 V 44.097 z" style="stroke: none; stroke-width: 1; stroke-dasharray: none; stroke-linecap: butt; stroke-linejoin: miter; stroke-miterlimit: 10; fill: rgb(0,0,0); fill-rule: nonzero; opacity: 1;" transform=" matrix(1 0 0 1 0 0) " stroke-linecap="round" />
	<path d="M 11.07 56.945 c -1.026 0 -2.036 -0.479 -2.678 -1.377 c -1.055 -1.478 -0.713 -3.531 0.764 -4.585 l 33.933 -24.231 c 1.143 -0.816 2.678 -0.816 3.821 0 l 33.933 24.231 c 1.478 1.055 1.82 3.108 0.765 4.585 c -1.057 1.477 -3.107 1.819 -4.586 0.765 L 45 33.467 L 12.977 56.334 C 12.398 56.746 11.731 56.945 11.07 56.945 z" style="stroke: none; stroke-width: 1; stroke-dasharray: none; stroke-linecap: butt; stroke-linejoin: miter; stroke-miterlimit: 10; fill: rgb(254,85,120); fill-rule: nonzero; opacity: 1;" transform=" matrix(1 0 0 1 0 0) " stroke-linecap="round" />
	<path d="M 11.07 57.945 c -1.383 0 -2.688 -0.671 -3.491 -1.794 c -1.374 -1.926 -0.926 -4.608 0.997 -5.981 l 33.933 -24.231 c 1.49 -1.065 3.493 -1.064 4.983 0 L 81.425 50.17 c 1.923 1.372 2.371 4.056 0.998 5.98 c -1.375 1.922 -4.058 2.367 -5.98 0.998 L 45 34.696 L 13.558 57.147 C 12.825 57.67 11.965 57.945 11.07 57.945 z M 45 27.141 c -0.466 0 -0.932 0.142 -1.329 0.426 L 9.738 51.797 c -1.026 0.733 -1.265 2.165 -0.532 3.191 c 0.705 0.985 2.193 1.24 3.191 0.531 l 32.022 -22.867 c 0.348 -0.248 0.814 -0.248 1.162 0 L 77.603 55.52 c 1.026 0.731 2.458 0.492 3.191 -0.533 c 0.732 -1.026 0.494 -2.458 -0.532 -3.19 l -33.933 -24.23 C 45.932 27.283 45.465 27.141 45 27.141 z" style="stroke: none; stroke-width: 1; stroke-dasharray: none; stroke-linecap: butt; stroke-linejoin: miter; stroke-miterlimit: 10; fill: rgb(0,0,0); fill-rule: nonzero; opacity: 1;" transform=" matrix(1 0 0 1 0 0) " stroke-linecap="round" />
	<path d="M 23.481 24.457 c -0.202 0.202 -0.53 0.202 -0.733 0 l -5.528 -5.528 c -0.851 -0.851 -1.256 -2.028 -1.098 -3.25 c 0.085 -0.659 0.345 -1.289 0.75 -1.816 c 0.774 -1.009 1.941 -1.561 3.188 -1.527 c 1.014 0.028 1.971 0.478 2.688 1.195 v 0 c 0.202 0.202 0.53 0.202 0.733 0 l 0.009 -0.009 c 0.707 -0.707 1.65 -1.151 2.65 -1.186 c 1.083 -0.038 2.108 0.367 2.87 1.129 l 0 0 c 0.73 0.73 1.131 1.7 1.131 2.731 c 0 1.032 -0.402 2.002 -1.131 2.731 L 23.481 24.457 z" style="stroke: none; stroke-width: 1; stroke-dasharray: none; stroke-linecap: butt; stroke-linejoin: miter; stroke-miterlimit: 10; fill: rgb(240,59,97); fill-rule: nonzero; opacity: 1;" transform=" matrix(1 0 0 1 0 0) " stroke-linecap="round" />
	<path d="M 23.115 25.608 c -0.389 0 -0.777 -0.148 -1.073 -0.444 l -5.528 -5.528 c -1.076 -1.075 -1.579 -2.564 -1.382 -4.085 c 0.107 -0.834 0.435 -1.628 0.948 -2.296 c 0.969 -1.261 2.442 -1.967 4.008 -1.918 c 1.099 0.03 2.158 0.444 3.027 1.175 c 0.861 -0.725 1.905 -1.136 2.99 -1.174 c 1.362 -0.052 2.648 0.458 3.612 1.421 c 0.918 0.918 1.424 2.139 1.424 3.438 s -0.506 2.52 -1.425 3.439 l -5.528 5.528 C 23.892 25.46 23.504 25.608 23.115 25.608 z M 19.953 13.335 c -0.9 0 -1.73 0.412 -2.287 1.138 c -0.298 0.388 -0.489 0.85 -0.551 1.335 c -0.117 0.901 0.18 1.781 0.813 2.415 l 5.187 5.187 l 5.187 -5.187 c 0.541 -0.541 0.839 -1.26 0.839 -2.024 c 0 -0.765 -0.298 -1.483 -0.839 -2.024 c -0.568 -0.568 -1.328 -0.869 -2.128 -0.837 c -0.724 0.025 -1.426 0.342 -1.977 0.894 c -0.601 0.6 -1.564 0.601 -2.155 0.008 c -0.562 -0.562 -1.275 -0.883 -2.008 -0.903 C 20.006 13.335 19.98 13.335 19.953 13.335 z" style="stroke: none; stroke-width: 1; stroke-dasharray: none; stroke-linecap: butt; stroke-linejoin: miter; stroke-miterlimit: 10; fill: rgb(0,0,0); fill-rule: nonzero; opacity: 1;" transform=" matrix(1 0 0 1 0 0) " stroke-linecap="round" />
	<path d="M 42.61 15.803 c -0.247 0.247 -0.648 0.247 -0.895 0 l -6.75 -6.75 c -1.039 -1.039 -1.534 -2.477 -1.341 -3.968 c 0.104 -0.804 0.422 -1.574 0.915 -2.217 c 0.946 -1.232 2.37 -1.906 3.893 -1.865 c 1.238 0.034 2.407 0.584 3.283 1.459 v 0 c 0.247 0.247 0.648 0.247 0.895 0 l 0.01 -0.01 c 0.864 -0.864 2.015 -1.406 3.236 -1.448 c 1.323 -0.046 2.574 0.448 3.504 1.379 l 0 0 c 0.891 0.891 1.382 2.075 1.382 3.335 s -0.491 2.444 -1.382 3.335 L 42.61 15.803 z" style="stroke: none; stroke-width: 1; stroke-dasharray: none; stroke-linecap: butt; stroke-linejoin: miter; stroke-miterlimit: 10; fill: rgb(254,85,120); fill-rule: nonzero; opacity: 1;" transform=" matrix(1 0 0 1 0 0) " stroke-linecap="round" />
	<path d="M 42.163 16.988 c -0.437 0 -0.847 -0.17 -1.155 -0.479 l -6.75 -6.75 c -1.264 -1.264 -1.857 -3.015 -1.625 -4.804 c 0.127 -0.981 0.512 -1.914 1.114 -2.698 c 1.138 -1.484 2.843 -2.311 4.713 -2.255 c 1.352 0.037 2.653 0.569 3.703 1.506 c 1.04 -0.93 2.323 -1.459 3.659 -1.505 c 1.586 -0.059 3.111 0.538 4.246 1.671 c 1.08 1.08 1.675 2.516 1.675 4.042 c 0 1.526 -0.595 2.962 -1.675 4.042 l -6.75 6.75 C 43.009 16.819 42.599 16.988 42.163 16.988 z M 41.905 15.094 c 0 0 -0.001 0.001 -0.001 0.001 L 41.905 15.094 z M 38.301 2 c -1.168 0 -2.245 0.534 -2.967 1.476 c -0.388 0.505 -0.636 1.105 -0.717 1.737 c -0.151 1.169 0.234 2.311 1.056 3.133 l 6.491 6.491 l 6.49 -6.491 c 0.702 -0.702 1.089 -1.636 1.089 -2.628 c 0 -0.993 -0.387 -1.926 -1.089 -2.628 c -0.737 -0.737 -1.723 -1.121 -2.763 -1.086 c -0.94 0.033 -1.851 0.443 -2.562 1.156 c -0.647 0.647 -1.684 0.646 -2.32 0.01 c -0.727 -0.727 -1.651 -1.141 -2.603 -1.167 C 38.371 2.001 38.335 2 38.301 2 z" style="stroke: none; stroke-width: 1; stroke-dasharray: none; stroke-linecap: butt; stroke-linejoin: miter; stroke-miterlimit: 10; fill: rgb(0,0,0); fill-rule: nonzero; opacity: 1;" transform=" matrix(1 0 0 1 0 0) " stroke-linecap="round" />
	<path d="M 64.04 30.301 c -0.3 0.3 -0.786 0.3 -1.086 0 l -8.193 -8.193 c -1.261 -1.261 -1.861 -3.006 -1.627 -4.816 c 0.126 -0.976 0.512 -1.91 1.111 -2.691 c 1.148 -1.495 2.877 -2.314 4.725 -2.264 c 1.503 0.041 2.921 0.708 3.984 1.771 v 0 c 0.3 0.3 0.786 0.3 1.086 0 l 0.013 -0.013 c 1.049 -1.049 2.445 -1.706 3.927 -1.758 c 1.606 -0.056 3.124 0.544 4.253 1.673 l 0 0 c 1.082 1.081 1.677 2.519 1.677 4.048 c 0 1.529 -0.595 2.967 -1.677 4.048 L 64.04 30.301 z" style="stroke: none; stroke-width: 1; stroke-dasharray: none; stroke-linecap: butt; stroke-linejoin: miter; stroke-miterlimit: 10; fill: rgb(240,59,97); fill-rule: nonzero; opacity: 1;" transform=" matrix(1 0 0 1 0 0) " stroke-linecap="round" />
	<path d="M 63.497 31.525 c -0.453 0 -0.905 -0.172 -1.25 -0.517 l -8.193 -8.193 c -1.487 -1.487 -2.185 -3.547 -1.912 -5.652 c 0.149 -1.152 0.603 -2.249 1.311 -3.171 c 1.34 -1.746 3.373 -2.716 5.545 -2.654 c 1.65 0.045 3.24 0.719 4.5 1.905 c 1.25 -1.177 2.816 -1.847 4.447 -1.904 c 1.892 -0.077 3.663 0.633 4.996 1.966 c 1.271 1.271 1.97 2.959 1.97 4.756 c 0 1.796 -0.699 3.485 -1.97 4.755 l -8.193 8.193 C 64.402 31.353 63.95 31.525 63.497 31.525 z M 58.809 13.335 c -1.485 0 -2.854 0.678 -3.771 1.875 c -0.493 0.643 -0.809 1.407 -0.912 2.21 c -0.192 1.485 0.297 2.936 1.342 3.981 l 8.029 8.029 l 8.029 -8.029 c 0.893 -0.893 1.384 -2.08 1.384 -3.341 c 0 -1.262 -0.491 -2.449 -1.384 -3.342 c -0.938 -0.937 -2.189 -1.424 -3.513 -1.381 c -1.194 0.042 -2.351 0.562 -3.254 1.465 c -0.702 0.701 -1.823 0.702 -2.513 0.013 c -0.921 -0.92 -2.095 -1.446 -3.305 -1.479 C 58.898 13.336 58.853 13.335 58.809 13.335 z" style="stroke: none; stroke-width: 1; stroke-dasharray: none; stroke-linecap: butt; stroke-linejoin: miter; stroke-miterlimit: 10; fill: rgb(0,0,0); fill-rule: nonzero; opacity: 1;" transform=" matrix(1 0 0 1 0 0) " stroke-linecap="round" />
</g>
</svg>